<?xml version="1.0" encoding="UTF-8"?>
<!DOCTYPE svg PUBLIC "-//W3C//DTD SVG 1.1//EN" "http://www.w3.org/Graphics/SVG/1.1/DTD/svg11.dtd">
<svg xmlns="http://www.w3.org/2000/svg" version="1.1" width="500px" height="500px" style="shape-rendering:geometricPrecision; text-rendering:geometricPrecision; image-rendering:optimizeQuality; fill-rule:evenodd; clip-rule:evenodd" xmlns:xlink="http://www.w3.org/1999/xlink">
<g><path style="opacity:1" fill="#fefefe" d="M -0.5,-0.5 C 166.167,-0.5 332.833,-0.5 499.5,-0.5C 499.5,166.167 499.5,332.833 499.5,499.5C 332.833,499.5 166.167,499.5 -0.5,499.5C -0.5,332.833 -0.5,166.167 -0.5,-0.5 Z"/></g>
<g><path style="opacity:1" fill="#678ccb" d="M 228.5,42.5 C 228.5,43.1667 228.833,43.5 229.5,43.5C 213.747,45.9506 198.081,49.1173 182.5,53C 197.455,47.7761 212.788,44.2761 228.5,42.5 Z"/></g>
<g><path style="opacity:1" fill="#92a9d9" d="M 120.5,89.5 C 117.769,93.2343 114.436,96.2343 110.5,98.5C 113.231,94.7657 116.564,91.7657 120.5,89.5 Z"/></g>
<g><path style="opacity:1" fill="#d7e1f1" d="M 123.5,89.5 C 110.764,100.9 99.0975,113.234 88.5,126.5C 94.0134,118.142 100.013,110.142 106.5,102.5C 107.5,100.833 108.833,99.5 110.5,98.5C 114.436,96.2343 117.769,93.2343 120.5,89.5C 121.879,86.9265 123.879,85.4265 126.5,85C 125.167,86.3333 123.833,87.6667 122.5,89C 122.728,89.3988 123.062,89.5654 123.5,89.5 Z"/></g>
<g><path style="opacity:1" fill="#1852b0" d="M 228.5,42.5 C 327.821,38.6929 396.987,82.3596 436,173.5C 456.266,228.531 453.432,282.198 427.5,334.5C 426.504,334.586 425.671,334.252 425,333.5C 420.062,342.387 414.896,351.054 409.5,359.5C 407.016,361.8 405.016,364.467 403.5,367.5C 353.929,421.979 292.262,444.812 218.5,436C 208.427,433.978 198.427,431.978 188.5,430C 216.12,439.344 244.453,442.844 273.5,440.5C 274.791,440.263 275.791,440.596 276.5,441.5C 204.641,449.136 145.141,425.803 98,371.5C 47.6692,307.188 37.0025,236.854 66,160.5C 75.469,138.223 88.969,118.89 106.5,102.5C 100.013,110.142 94.0134,118.142 88.5,126.5C 99.0975,113.234 110.764,100.9 123.5,89.5C 174.868,50.9976 232.202,38.331 295.5,51.5C 301.669,53.4967 308.003,54.9967 314.5,56C 308.969,53.7015 303.302,51.8682 297.5,50.5C 275.216,44.9386 252.55,42.6053 229.5,43.5C 228.833,43.5 228.5,43.1667 228.5,42.5 Z"/></g>
<g><path style="opacity:1" fill="#3f69bb" d="M 80.5,138.5 C 80.8417,139.338 81.5084,139.672 82.5,139.5C 78.4164,147.337 74.0831,155.003 69.5,162.5C 67.8684,165.209 67.3684,164.875 68,161.5C 71.6868,153.452 75.8534,145.785 80.5,138.5 Z"/></g>
<g><path style="opacity:1" fill="#9bb6de" d="M 82.5,135.5 C 82.573,137.027 81.9063,138.027 80.5,138.5C 80.427,136.973 81.0937,135.973 82.5,135.5 Z"/></g>
<g><path style="opacity:1" fill="#a2bbe0" d="M 88.5,126.5 C 87.2411,130.025 85.2411,133.025 82.5,135.5C 83.7232,131.951 85.7232,128.951 88.5,126.5 Z"/></g>
<g><path style="opacity:1" fill="#3160b7" d="M 117.5,102.5 C 111.069,110.774 104.402,118.94 97.5,127C 98.056,127.383 98.3893,127.883 98.5,128.5C 85.8489,146.764 75.8489,166.43 68.5,187.5C 70.542,179.748 72.8753,172.081 75.5,164.5C 78.7257,159.053 81.7257,153.387 84.5,147.5C 84.3764,146.893 84.0431,146.56 83.5,146.5C 82.8333,146.5 82.1667,146.5 81.5,146.5C 91.597,130.324 103.597,115.657 117.5,102.5 Z"/></g>
<g><path style="opacity:1" fill="#9ab4dd" d="M 393.5,114.5 C 392.833,114.5 392.5,114.833 392.5,115.5C 388.398,110.895 384.064,106.395 379.5,102C 384.823,105.141 389.49,109.308 393.5,114.5 Z"/></g>
<g><path style="opacity:1" fill="#93b0db" d="M 148.5,76.5 C 150.975,76.7467 150.975,77.4134 148.5,78.5C 147.537,78.0302 147.537,77.3635 148.5,76.5 Z"/></g>
<g><path style="opacity:1" fill="#fdfefe" d="M 219.5,54.5 C 221.199,54.3398 222.866,54.5065 224.5,55C 215.199,57.4858 206.532,61.3192 198.5,66.5C 198.103,65.475 197.437,65.3083 196.5,66C 178.463,78.893 166.463,96.0597 160.5,117.5C 157.929,125.934 156.929,134.6 157.5,143.5C 155.078,145.048 155.078,146.714 157.5,148.5C 157.198,151.059 157.532,153.393 158.5,155.5C 159.536,166.666 162.869,176.999 168.5,186.5C 168.66,188.153 169.326,189.486 170.5,190.5C 170.427,192.027 171.094,193.027 172.5,193.5C 172.427,195.027 173.094,196.027 174.5,196.5C 172.086,197.777 171.919,199.443 174,201.5C 174.671,200.748 175.504,200.414 176.5,200.5C 177.5,201.833 178.5,203.167 179.5,204.5C 195.989,224.747 217.323,236.08 243.5,238.5C 276.367,241.335 303.367,230.335 324.5,205.5C 324.833,205.5 325.167,205.5 325.5,205.5C 326.833,205.5 328.167,205.5 329.5,205.5C 329.567,204.041 329.234,202.708 328.5,201.5C 329.167,200.5 329.833,199.5 330.5,198.5C 331.674,197.486 332.34,196.153 332.5,194.5C 340.934,181.864 345.601,167.864 346.5,152.5C 347.405,151.036 347.405,149.702 346.5,148.5C 346.889,118.531 336.222,93.0308 314.5,72C 307.615,66.3974 300.282,61.5641 292.5,57.5C 357.424,75.425 402.091,115.758 426.5,178.5C 428.902,185.373 430.902,192.373 432.5,199.5C 433.983,205.082 435.15,210.749 436,216.5C 436.373,210.557 435.54,204.89 433.5,199.5C 432.482,191.797 430.482,184.464 427.5,177.5C 419.953,154.394 408.286,133.728 392.5,115.5C 392.5,114.833 392.833,114.5 393.5,114.5C 434.468,161.011 449.301,215.011 438,276.5C 434.6,292.698 429.6,308.365 423,323.5C 422.303,325.584 421.136,327.251 419.5,328.5C 425.875,315.081 430.541,301.081 433.5,286.5C 436.998,274.527 438.498,262.193 438,249.5C 437.222,262.011 435.388,274.345 432.5,286.5C 427.502,306.822 419.502,325.822 408.5,343.5C 375.09,394.227 328.09,423.727 267.5,432C 262.98,432.814 258.646,432.647 254.5,431.5C 270.761,430.967 286.094,426.967 300.5,419.5C 300.897,420.525 301.563,420.692 302.5,420C 311.254,414.414 318.92,407.581 325.5,399.5C 336.726,386.179 343.726,370.846 346.5,353.5C 350.304,308.94 333.304,275.107 295.5,252C 284.743,246.645 273.409,243.478 261.5,242.5C 259.052,241.527 256.385,241.194 253.5,241.5C 252.167,240.167 250.833,240.167 249.5,241.5C 241.296,241.41 233.296,242.577 225.5,245C 226,245.167 226.5,245.333 227,245.5C 229.324,244.307 231.49,244.307 233.5,245.5C 220.585,247.963 208.585,252.63 197.5,259.5C 195.801,256.849 194.134,256.849 192.5,259.5C 188.623,263.811 184.623,268.145 180.5,272.5C 177.102,275.627 174.435,279.293 172.5,283.5C 164.814,293.549 159.814,304.882 157.5,317.5C 151.564,357.529 164.231,390.362 195.5,416C 205.32,423.078 215.987,428.245 227.5,431.5C 163.275,421.238 115.275,387.905 83.5,331.5C 74.9255,315.778 68.9255,299.111 65.5,281.5C 63.6917,274.65 62.525,267.65 62,260.5C 60.9982,245.053 61.4982,229.72 63.5,214.5C 64.7836,205.416 66.4502,196.416 68.5,187.5C 75.8489,166.43 85.8489,146.764 98.5,128.5C 129.628,89.0887 169.961,64.422 219.5,54.5 Z"/></g>
<g><path style="opacity:1" fill="#61bef9" d="M 160.5,117.5 C 161.139,118.097 161.472,118.93 161.5,120C 160.078,124.764 159.578,129.597 160,134.5C 160.487,129.535 161.654,124.868 163.5,120.5C 163.091,124.876 162.425,129.21 161.5,133.5C 161.5,139.5 161.5,145.5 161.5,151.5C 160.5,151.5 159.5,151.5 158.5,151.5C 158.5,152.833 158.5,154.167 158.5,155.5C 157.532,153.393 157.198,151.059 157.5,148.5C 158.391,147.739 159.058,146.739 159.5,145.5C 159.253,144.287 158.586,143.62 157.5,143.5C 156.929,134.6 157.929,125.934 160.5,117.5 Z"/></g>
<g><path style="opacity:1" fill="#c0e7ff" d="M 167.5,116.5 C 164.919,123.572 163.419,130.906 163,138.5C 162.802,136.618 162.302,134.952 161.5,133.5C 162.425,129.21 163.091,124.876 163.5,120.5C 164.41,118.981 165.243,117.315 166,115.5C 166.383,116.056 166.883,116.389 167.5,116.5 Z"/></g>
<g><path style="opacity:1" fill="#d3eeff" d="M 330.5,97.5 C 336.055,105.627 339.722,114.627 341.5,124.5C 340.71,125.609 340.21,126.942 340,128.5C 338.471,121.715 336.638,115.048 334.5,108.5C 333.452,104.736 332.119,101.069 330.5,97.5 Z"/></g>
<g><path style="opacity:1" fill="#90d3ff" d="M 198.5,66.5 C 196.906,67.983 195.24,69.483 193.5,71C 195.047,71.3334 196.38,70.8334 197.5,69.5C 198.293,70.3554 197.96,71.1887 196.5,72C 194.023,73.6427 191.69,75.476 189.5,77.5C 189.167,77.3333 188.833,77.1667 188.5,77C 189.833,75.6667 191.167,74.3333 192.5,73C 191.833,72.3333 191.167,72.3333 190.5,73C 187,76.5 183.5,80 180,83.5C 179.719,85.9047 180.385,85.9047 182,83.5C 182.667,84.1667 182.667,84.8333 182,85.5C 177.431,90.304 173.598,95.6373 170.5,101.5C 171.233,102.087 172.233,102.087 173.5,101.5C 171.11,106.336 169.11,111.336 167.5,116.5C 166.883,116.389 166.383,116.056 166,115.5C 165.243,117.315 164.41,118.981 163.5,120.5C 161.654,124.868 160.487,129.535 160,134.5C 159.578,129.597 160.078,124.764 161.5,120C 161.472,118.93 161.139,118.097 160.5,117.5C 166.463,96.0597 178.463,78.893 196.5,66C 197.437,65.3083 198.103,65.475 198.5,66.5 Z"/></g>
<g><path style="opacity:1" fill="#9bd7ff" d="M 330.5,97.5 C 332.119,101.069 333.452,104.736 334.5,108.5C 330.015,100.2 325.015,92.1998 319.5,84.5C 319.369,83.7611 319.536,83.0944 320,82.5C 324.505,86.8589 328.005,91.8589 330.5,97.5 Z"/></g>
<g><path style="opacity:1" fill="#95b1dc" d="M 297.5,50.5 C 303.302,51.8682 308.969,53.7015 314.5,56C 308.003,54.9967 301.669,53.4967 295.5,51.5C 296.492,51.6716 297.158,51.3382 297.5,50.5 Z"/></g>
<g><path style="opacity:1" fill="#fdfdfe" d="M 319.5,84.5 C 325.015,92.1998 330.015,100.2 334.5,108.5C 336.638,115.048 338.471,121.715 340,128.5C 340.21,126.942 340.71,125.609 341.5,124.5C 343.161,132.399 343.827,140.399 343.5,148.5C 342.766,149.708 342.433,151.041 342.5,152.5C 342.567,153.959 342.234,155.292 341.5,156.5C 340.314,157.705 340.314,159.039 341.5,160.5C 341.737,161.791 341.404,162.791 340.5,163.5C 338.748,163.418 337.748,164.251 337.5,166C 337.836,167.03 338.503,167.53 339.5,167.5C 339.587,170.598 339.087,170.932 338,168.5C 336.915,169.736 336.082,171.069 335.5,172.5C 335.5,173.5 335.5,174.5 335.5,175.5C 334.89,176.391 334.557,177.391 334.5,178.5C 333.326,179.514 332.66,180.847 332.5,182.5C 331.833,183.833 331.167,185.167 330.5,186.5C 330.5,186.833 330.5,187.167 330.5,187.5C 326.669,193.816 322.335,199.816 317.5,205.5C 299.952,223.27 278.619,232.936 253.5,234.5C 253.38,233.414 252.713,232.747 251.5,232.5C 250.287,232.747 249.62,233.414 249.5,234.5C 217.118,231.488 192.118,216.488 174.5,189.5C 174.34,187.847 173.674,186.514 172.5,185.5C 172.386,182.349 171.053,181.349 168.5,182.5C 168.167,181.167 167.833,179.833 167.5,178.5C 169.176,177.817 169.843,176.483 169.5,174.5C 168.167,174.5 166.833,174.5 165.5,174.5C 165.167,173.167 164.833,171.833 164.5,170.5C 165.5,170.5 166.5,170.5 167.5,170.5C 167.833,167.5 166.5,166.167 163.5,166.5C 163.443,165.391 163.11,164.391 162.5,163.5C 163.806,162.533 164.473,161.199 164.5,159.5C 163.791,158.596 162.791,158.263 161.5,158.5C 161.5,157.5 161.5,156.5 161.5,155.5C 162.833,154.167 162.833,152.833 161.5,151.5C 161.5,145.5 161.5,139.5 161.5,133.5C 162.302,134.952 162.802,136.618 163,138.5C 163.419,130.906 164.919,123.572 167.5,116.5C 169.11,111.336 171.11,106.336 173.5,101.5C 192.651,68.752 221.317,52.9187 259.5,54C 283.518,56.5083 303.518,66.675 319.5,84.5 Z"/></g>
<g><path style="opacity:1" fill="#111111" d="M 250.5,136.5 C 251.5,136.5 252.5,136.5 253.5,136.5C 253.5,137.833 253.5,139.167 253.5,140.5C 252.5,140.5 251.5,140.5 250.5,140.5C 250.5,139.167 250.5,137.833 250.5,136.5 Z"/></g>
<g><path style="opacity:1" fill="#111111" d="M 250.5,128.5 C 251.5,128.5 252.5,128.5 253.5,128.5C 253.5,129.833 253.5,131.167 253.5,132.5C 252.5,132.5 251.5,132.5 250.5,132.5C 250.5,131.167 250.5,129.833 250.5,128.5 Z"/></g>
<g><path style="opacity:1" fill="#111111" d="M 250.5,120.5 C 251.5,120.5 252.5,120.5 253.5,120.5C 253.5,121.833 253.5,123.167 253.5,124.5C 252.5,124.5 251.5,124.5 250.5,124.5C 250.5,123.167 250.5,121.833 250.5,120.5 Z"/></g>
<g><path style="opacity:1" fill="#111111" d="M 250.5,112.5 C 251.5,112.5 252.5,112.5 253.5,112.5C 253.5,113.833 253.5,115.167 253.5,116.5C 252.5,116.5 251.5,116.5 250.5,116.5C 250.5,115.167 250.5,113.833 250.5,112.5 Z"/></g>
<g><path style="opacity:1" fill="#111111" d="M 250.5,104.5 C 251.5,104.5 252.5,104.5 253.5,104.5C 253.5,105.833 253.5,107.167 253.5,108.5C 252.5,108.5 251.5,108.5 250.5,108.5C 250.5,107.167 250.5,105.833 250.5,104.5 Z"/></g>
<g><path style="opacity:1" fill="#4ebafd" d="M 292.5,57.5 C 300.282,61.5641 307.615,66.3974 314.5,72C 336.222,93.0308 346.889,118.531 346.5,148.5C 345.5,148.5 344.5,148.5 343.5,148.5C 343.827,140.399 343.161,132.399 341.5,124.5C 339.722,114.627 336.055,105.627 330.5,97.5C 328.005,91.8589 324.505,86.8589 320,82.5C 319.536,83.0944 319.369,83.7611 319.5,84.5C 303.518,66.675 283.518,56.5083 259.5,54C 221.317,52.9187 192.651,68.752 173.5,101.5C 172.233,102.087 171.233,102.087 170.5,101.5C 173.598,95.6373 177.431,90.304 182,85.5C 182.667,84.8333 182.667,84.1667 182,83.5C 180.385,85.9047 179.719,85.9047 180,83.5C 183.5,80 187,76.5 190.5,73C 191.167,72.3333 191.833,72.3333 192.5,73C 191.167,74.3333 189.833,75.6667 188.5,77C 188.833,77.1667 189.167,77.3333 189.5,77.5C 191.69,75.476 194.023,73.6427 196.5,72C 197.96,71.1887 198.293,70.3554 197.5,69.5C 196.38,70.8334 195.047,71.3334 193.5,71C 195.24,69.483 196.906,67.983 198.5,66.5C 206.532,61.3192 215.199,57.4858 224.5,55C 222.866,54.5065 221.199,54.3398 219.5,54.5C 229.612,52.6808 239.946,51.6808 250.5,51.5C 251.833,52.8333 253.167,52.8333 254.5,51.5C 260.909,51.4409 267.242,52.1076 273.5,53.5C 274.167,53.3333 274.833,53.1667 275.5,53C 270.292,51.3585 264.959,50.3585 259.5,50C 271.175,49.8368 282.175,52.3368 292.5,57.5 Z"/></g>
<g><path style="opacity:1" fill="#111111" d="M 250.5,96.5 C 251.5,96.5 252.5,96.5 253.5,96.5C 253.5,97.8333 253.5,99.1667 253.5,100.5C 252.5,100.5 251.5,100.5 250.5,100.5C 250.5,99.1667 250.5,97.8333 250.5,96.5 Z"/></g>
<g><path style="opacity:1" fill="#111111" d="M 250.5,88.5 C 251.5,88.5 252.5,88.5 253.5,88.5C 253.5,89.8333 253.5,91.1667 253.5,92.5C 252.5,92.5 251.5,92.5 250.5,92.5C 250.5,91.1667 250.5,89.8333 250.5,88.5 Z"/></g>
<g><path style="opacity:1" fill="#111111" d="M 250.5,80.5 C 251.5,80.5 252.5,80.5 253.5,80.5C 253.5,81.8333 253.5,83.1667 253.5,84.5C 252.5,84.5 251.5,84.5 250.5,84.5C 250.5,83.1667 250.5,81.8333 250.5,80.5 Z"/></g>
<g><path style="opacity:1" fill="#111111" d="M 250.5,72.5 C 251.5,72.5 252.5,72.5 253.5,72.5C 253.5,73.8333 253.5,75.1667 253.5,76.5C 252.5,76.5 251.5,76.5 250.5,76.5C 250.5,75.1667 250.5,73.8333 250.5,72.5 Z"/></g>
<g><path style="opacity:1" fill="#7c7c7c" d="M 253.5,68.5 C 253.5,67.5 253.5,66.5 253.5,65.5C 252.5,65.5 251.5,65.5 250.5,65.5C 250.5,66.5 250.5,67.5 250.5,68.5C 249.566,67.4324 249.232,66.099 249.5,64.5C 251.167,64.5 252.833,64.5 254.5,64.5C 254.768,66.099 254.434,67.4324 253.5,68.5 Z"/></g>
<g><path style="opacity:1" fill="#000000" d="M 253.5,68.5 C 252.5,68.5 251.5,68.5 250.5,68.5C 250.5,67.5 250.5,66.5 250.5,65.5C 251.5,65.5 252.5,65.5 253.5,65.5C 253.5,66.5 253.5,67.5 253.5,68.5 Z"/></g>
<g><path style="opacity:1" fill="#191919" d="M 250.5,56.5 C 251.833,56.5 253.167,56.5 254.5,56.5C 254.5,57.8333 254.5,59.1667 254.5,60.5C 253.167,60.5 251.833,60.5 250.5,60.5C 250.5,59.1667 250.5,57.8333 250.5,56.5 Z"/></g>
<g><path style="opacity:1" fill="#070d16" d="M 254.5,51.5 C 253.167,52.8333 251.833,52.8333 250.5,51.5C 250.5,50.5 250.5,49.5 250.5,48.5C 251.833,48.5 253.167,48.5 254.5,48.5C 254.5,49.5 254.5,50.5 254.5,51.5 Z"/></g>
<g><path style="opacity:1" fill="#121416" d="M 157.5,143.5 C 158.586,143.62 159.253,144.287 159.5,145.5C 159.058,146.739 158.391,147.739 157.5,148.5C 155.078,146.714 155.078,145.048 157.5,143.5 Z"/></g>
<g><path style="opacity:1" fill="#111111" d="M 250.5,144.5 C 251.5,144.5 252.5,144.5 253.5,144.5C 253.5,145.833 253.5,147.167 253.5,148.5C 252.5,148.5 251.5,148.5 250.5,148.5C 250.5,147.167 250.5,145.833 250.5,144.5 Z"/></g>
<g><path style="opacity:1" fill="#e0e8f5" d="M 117.5,102.5 C 103.597,115.657 91.597,130.324 81.5,146.5C 65.4056,173.619 56.239,202.952 54,234.5C 53.0238,222.998 54.0238,211.665 57,200.5C 60.0799,187.428 64.2466,174.761 69.5,162.5C 74.0831,155.003 78.4164,147.337 82.5,139.5C 98.9203,114.573 119.92,94.7397 145.5,80C 135.588,86.7882 126.255,94.2882 117.5,102.5 Z"/></g>
<g><path style="opacity:1" fill="#13191d" d="M 343.5,148.5 C 344.5,148.5 345.5,148.5 346.5,148.5C 347.405,149.702 347.405,151.036 346.5,152.5C 345.167,152.5 343.833,152.5 342.5,152.5C 342.433,151.041 342.766,149.708 343.5,148.5 Z"/></g>
<g><path style="opacity:1" fill="#0b0f12" d="M 161.5,151.5 C 162.833,152.833 162.833,154.167 161.5,155.5C 160.5,155.5 159.5,155.5 158.5,155.5C 158.5,154.167 158.5,152.833 158.5,151.5C 159.5,151.5 160.5,151.5 161.5,151.5 Z"/></g>
<g><path style="opacity:1" fill="#111111" d="M 250.5,152.5 C 251.5,152.5 252.5,152.5 253.5,152.5C 253.5,153.833 253.5,155.167 253.5,156.5C 252.5,156.5 251.5,156.5 250.5,156.5C 250.5,155.167 250.5,153.833 250.5,152.5 Z"/></g>
<g><path style="opacity:1" fill="#101417" d="M 341.5,156.5 C 342.5,156.5 343.5,156.5 344.5,156.5C 344.5,157.833 344.5,159.167 344.5,160.5C 343.5,160.5 342.5,160.5 341.5,160.5C 340.314,159.039 340.314,157.705 341.5,156.5 Z"/></g>
<g><path style="opacity:1" fill="#a8c0e3" d="M 83.5,146.5 C 84.0431,146.56 84.3764,146.893 84.5,147.5C 81.7257,153.387 78.7257,159.053 75.5,164.5C 77.6139,158.271 80.2806,152.271 83.5,146.5 Z"/></g>
<g><path style="opacity:1" fill="#010405" d="M 164.5,159.5 C 164.473,161.199 163.806,162.533 162.5,163.5C 159.423,160.657 160.09,159.323 164.5,159.5 Z"/></g>
<g><path style="opacity:1" fill="#111111" d="M 250.5,160.5 C 251.5,160.5 252.5,160.5 253.5,160.5C 253.5,161.833 253.5,163.167 253.5,164.5C 252.5,164.5 251.5,164.5 250.5,164.5C 250.5,163.167 250.5,161.833 250.5,160.5 Z"/></g>
<g><path style="opacity:1" fill="#171819" d="M 340.5,163.5 C 342.777,165.038 342.444,166.371 339.5,167.5C 338.503,167.53 337.836,167.03 337.5,166C 337.748,164.251 338.748,163.418 340.5,163.5 Z"/></g>
<g><path style="opacity:1" fill="#151617" d="M 163.5,166.5 C 166.5,166.167 167.833,167.5 167.5,170.5C 166.5,170.5 165.5,170.5 164.5,170.5C 163.566,169.432 163.232,168.099 163.5,166.5 Z"/></g>
<g><path style="opacity:1" fill="#111111" d="M 250.5,168.5 C 251.5,168.5 252.5,168.5 253.5,168.5C 253.5,169.833 253.5,171.167 253.5,172.5C 252.5,172.5 251.5,172.5 250.5,172.5C 250.5,171.167 250.5,169.833 250.5,168.5 Z"/></g>
<g><path style="opacity:1" fill="#43b0f1" d="M 158.5,155.5 C 159.5,155.5 160.5,155.5 161.5,155.5C 161.5,156.5 161.5,157.5 161.5,158.5C 162.791,158.263 163.791,158.596 164.5,159.5C 160.09,159.323 159.423,160.657 162.5,163.5C 163.11,164.391 163.443,165.391 163.5,166.5C 163.232,168.099 163.566,169.432 164.5,170.5C 164.833,171.833 165.167,173.167 165.5,174.5C 165.229,176.38 165.896,177.713 167.5,178.5C 167.833,179.833 168.167,181.167 168.5,182.5C 168.074,183.528 168.074,184.861 168.5,186.5C 162.869,176.999 159.536,166.666 158.5,155.5 Z"/></g>
<g><path style="opacity:1" fill="#14181b" d="M 335.5,175.5 C 335.5,174.5 335.5,173.5 335.5,172.5C 336.708,171.766 338.041,171.433 339.5,171.5C 339.5,172.833 339.5,174.167 339.5,175.5C 338.167,175.5 336.833,175.5 335.5,175.5 Z"/></g>
<g><path style="opacity:1" fill="#14181b" d="M 165.5,174.5 C 166.833,174.5 168.167,174.5 169.5,174.5C 169.843,176.483 169.176,177.817 167.5,178.5C 165.896,177.713 165.229,176.38 165.5,174.5 Z"/></g>
<g><path style="opacity:1" fill="#111111" d="M 250.5,176.5 C 251.5,176.5 252.5,176.5 253.5,176.5C 253.5,177.833 253.5,179.167 253.5,180.5C 252.5,180.5 251.5,180.5 250.5,180.5C 250.5,179.167 250.5,177.833 250.5,176.5 Z"/></g>
<g><path style="opacity:1" fill="#131517" d="M 334.5,178.5 C 335.263,179.268 336.263,179.768 337.5,180C 336.929,181.205 336.262,182.372 335.5,183.5C 334.583,182.873 333.583,182.539 332.5,182.5C 332.66,180.847 333.326,179.514 334.5,178.5 Z"/></g>
<g><path style="opacity:1" fill="#10161b" d="M 172.5,185.5 C 171.167,185.833 169.833,186.167 168.5,186.5C 168.074,184.861 168.074,183.528 168.5,182.5C 171.053,181.349 172.386,182.349 172.5,185.5 Z"/></g>
<g><path style="opacity:1" fill="#111111" d="M 250.5,184.5 C 251.5,184.5 252.5,184.5 253.5,184.5C 253.5,185.833 253.5,187.167 253.5,188.5C 252.5,188.5 251.5,188.5 250.5,188.5C 250.5,187.167 250.5,185.833 250.5,184.5 Z"/></g>
<g><path style="opacity:1" fill="#121619" d="M 330.5,186.5 C 331.833,186.5 333.167,186.5 334.5,186.5C 334.5,187.833 334.5,189.167 334.5,190.5C 333.167,190.5 331.833,190.5 330.5,190.5C 330.5,189.5 330.5,188.5 330.5,187.5C 330.5,187.167 330.5,186.833 330.5,186.5 Z"/></g>
<g><path style="opacity:1" fill="#75c3f5" d="M 342.5,152.5 C 343.833,152.5 345.167,152.5 346.5,152.5C 345.601,167.864 340.934,181.864 332.5,194.5C 331.178,194.67 330.011,194.337 329,193.5C 326.681,196.014 327.181,197.681 330.5,198.5C 329.833,199.5 329.167,200.5 328.5,201.5C 327.5,201.5 326.5,201.5 325.5,201.5C 322.87,203.628 320.37,205.961 318,208.5C 317.517,207.552 317.351,206.552 317.5,205.5C 322.335,199.816 326.669,193.816 330.5,187.5C 330.5,188.5 330.5,189.5 330.5,190.5C 331.833,190.5 333.167,190.5 334.5,190.5C 334.5,189.167 334.5,187.833 334.5,186.5C 333.167,186.5 331.833,186.5 330.5,186.5C 331.167,185.167 331.833,183.833 332.5,182.5C 333.583,182.539 334.583,182.873 335.5,183.5C 336.262,182.372 336.929,181.205 337.5,180C 336.263,179.768 335.263,179.268 334.5,178.5C 334.557,177.391 334.89,176.391 335.5,175.5C 336.833,175.5 338.167,175.5 339.5,175.5C 339.5,174.167 339.5,172.833 339.5,171.5C 338.041,171.433 336.708,171.766 335.5,172.5C 336.082,171.069 336.915,169.736 338,168.5C 339.087,170.932 339.587,170.598 339.5,167.5C 342.444,166.371 342.777,165.038 340.5,163.5C 341.404,162.791 341.737,161.791 341.5,160.5C 342.5,160.5 343.5,160.5 344.5,160.5C 344.5,159.167 344.5,157.833 344.5,156.5C 343.5,156.5 342.5,156.5 341.5,156.5C 342.234,155.292 342.567,153.959 342.5,152.5 Z"/></g>
<g><path style="opacity:1" fill="#89c6f2" d="M 172.5,185.5 C 173.674,186.514 174.34,187.847 174.5,189.5C 172.901,189.232 171.568,189.566 170.5,190.5C 169.326,189.486 168.66,188.153 168.5,186.5C 169.833,186.167 171.167,185.833 172.5,185.5 Z"/></g>
<g><path style="opacity:1" fill="#5a81c6" d="M 427.5,177.5 C 430.482,184.464 432.482,191.797 433.5,199.5C 433.167,199.5 432.833,199.5 432.5,199.5C 430.902,192.373 428.902,185.373 426.5,178.5C 427.167,178.5 427.5,178.167 427.5,177.5 Z"/></g>
<g><path style="opacity:1" fill="#0d1316" d="M 174.5,189.5 C 174.843,191.483 174.176,192.817 172.5,193.5C 171.094,193.027 170.427,192.027 170.5,190.5C 171.568,189.566 172.901,189.232 174.5,189.5 Z"/></g>
<g><path style="opacity:1" fill="#6d90cd" d="M 68.5,187.5 C 66.4502,196.416 64.7836,205.416 63.5,214.5C 62.3709,212.372 62.2042,210.039 63,207.5C 64.2396,200.528 66.0729,193.862 68.5,187.5 Z"/></g>
<g><path style="opacity:1" fill="#191919" d="M 249.5,192.5 C 250.833,192.5 252.167,192.5 253.5,192.5C 253.5,193.833 253.5,195.167 253.5,196.5C 252.167,196.5 250.833,196.5 249.5,196.5C 249.5,195.167 249.5,193.833 249.5,192.5 Z"/></g>
<g><path style="opacity:1" fill="#111619" d="M 332.5,194.5 C 332.34,196.153 331.674,197.486 330.5,198.5C 327.181,197.681 326.681,196.014 329,193.5C 330.011,194.337 331.178,194.67 332.5,194.5 Z"/></g>
<g><path style="opacity:1" fill="#15191c" d="M 174.5,196.5 C 175.376,196.369 176.043,196.702 176.5,197.5C 177.653,198.687 177.653,199.687 176.5,200.5C 175.504,200.414 174.671,200.748 174,201.5C 171.919,199.443 172.086,197.777 174.5,196.5 Z"/></g>
<g><path style="opacity:1" fill="#51bcfe" d="M 174.5,189.5 C 192.118,216.488 217.118,231.488 249.5,234.5C 249.5,235.167 249.5,235.833 249.5,236.5C 241.406,236.11 233.406,235.277 225.5,234C 231.581,235.71 237.581,237.21 243.5,238.5C 217.323,236.08 195.989,224.747 179.5,204.5C 178.5,203.167 177.5,201.833 176.5,200.5C 177.653,199.687 177.653,198.687 176.5,197.5C 176.043,196.702 175.376,196.369 174.5,196.5C 173.094,196.027 172.427,195.027 172.5,193.5C 174.176,192.817 174.843,191.483 174.5,189.5 Z"/></g>
<g><path style="opacity:1" fill="#191919" d="M 249.5,200.5 C 250.833,200.5 252.167,200.5 253.5,200.5C 253.5,201.833 253.5,203.167 253.5,204.5C 252.167,204.5 250.833,204.5 249.5,204.5C 249.5,203.167 249.5,201.833 249.5,200.5 Z"/></g>
<g><path style="opacity:1" fill="#151617" d="M 325.5,201.5 C 326.5,201.5 327.5,201.5 328.5,201.5C 329.234,202.708 329.567,204.041 329.5,205.5C 328.167,205.5 326.833,205.5 325.5,205.5C 325.5,204.167 325.5,202.833 325.5,201.5 Z"/></g>
<g><path style="opacity:1" fill="#1a1a1a" d="M 179.5,204.5 C 179.5,205.833 179.5,207.167 179.5,208.5C 176.5,208.833 175.167,207.5 175.5,204.5C 176.833,204.5 178.167,204.5 179.5,204.5 Z"/></g>
<g><path style="opacity:1" fill="#e3ebf6" d="M 75.5,164.5 C 72.8753,172.081 70.542,179.748 68.5,187.5C 66.0729,193.862 64.2396,200.528 63,207.5C 62.2042,210.039 62.3709,212.372 63.5,214.5C 61.4982,229.72 60.9982,245.053 62,260.5C 62.525,267.65 63.6917,274.65 65.5,281.5C 67.3102,299.598 72.9769,316.598 82.5,332.5C 91.7894,352.641 104.789,370.141 121.5,385C 90.4341,359.812 70.6007,327.312 62,287.5C 52.6958,244.83 57.1958,203.83 75.5,164.5 Z"/></g>
<g><path style="opacity:1" fill="#191919" d="M 249.5,208.5 C 250.833,208.5 252.167,208.5 253.5,208.5C 253.5,209.833 253.5,211.167 253.5,212.5C 252.167,212.5 250.833,212.5 249.5,212.5C 249.5,211.167 249.5,209.833 249.5,208.5 Z"/></g>
<g><path style="opacity:1" fill="#1c1c1c" d="M 323.5,209.5 C 328.207,209.417 328.707,210.75 325,213.5C 322.5,212.842 322,211.509 323.5,209.5 Z"/></g>
<g><path style="opacity:1" fill="#9bb7de" d="M 432.5,199.5 C 432.833,199.5 433.167,199.5 433.5,199.5C 435.54,204.89 436.373,210.557 436,216.5C 435.15,210.749 433.983,205.082 432.5,199.5 Z"/></g>
<g><path style="opacity:1" fill="#171717" d="M 177.5,212.5 C 182.786,212.387 183.453,213.72 179.5,216.5C 178.295,215.423 177.628,214.09 177.5,212.5 Z"/></g>
<g><path style="opacity:1" fill="#191919" d="M 249.5,216.5 C 250.833,216.5 252.167,216.5 253.5,216.5C 253.5,217.833 253.5,219.167 253.5,220.5C 252.167,220.5 250.833,220.5 249.5,220.5C 249.5,219.167 249.5,217.833 249.5,216.5 Z"/></g>
<g><path style="opacity:1" fill="#141414" d="M 320.5,216.5 C 322.346,216.222 323.68,216.889 324.5,218.5C 323.68,220.111 322.346,220.778 320.5,220.5C 320.5,219.167 320.5,217.833 320.5,216.5 Z"/></g>
<g><path style="opacity:1" fill="#232323" d="M 181.5,219.5 C 182.5,219.5 183.5,219.5 184.5,219.5C 185.244,222.95 183.91,224.616 180.5,224.5C 180.366,222.708 180.699,221.042 181.5,219.5 Z"/></g>
<g><path style="opacity:1" fill="#56befe" d="M 325.5,201.5 C 325.5,202.833 325.5,204.167 325.5,205.5C 325.167,205.5 324.833,205.5 324.5,205.5C 324.565,205.062 324.399,204.728 324,204.5C 305.175,225.327 281.675,235.994 253.5,236.5C 253.5,235.833 253.5,235.167 253.5,234.5C 278.619,232.936 299.952,223.27 317.5,205.5C 317.351,206.552 317.517,207.552 318,208.5C 320.37,205.961 322.87,203.628 325.5,201.5 Z"/></g>
<g><path style="opacity:1" fill="#222222" d="M 318.5,224.5 C 319.833,224.5 321.167,224.5 322.5,224.5C 322.616,227.91 320.95,229.244 317.5,228.5C 317.433,227.041 317.766,225.708 318.5,224.5 Z"/></g>
<g><path style="opacity:1" fill="#191919" d="M 249.5,224.5 C 250.833,224.5 252.167,224.5 253.5,224.5C 253.5,225.833 253.5,227.167 253.5,228.5C 252.167,228.5 250.833,228.5 249.5,228.5C 249.5,227.167 249.5,225.833 249.5,224.5 Z"/></g>
<g><path style="opacity:1" fill="#212121" d="M 182.5,227.5 C 185.95,226.756 187.616,228.09 187.5,231.5C 184.454,231.817 182.787,230.484 182.5,227.5 Z"/></g>
<g><path style="opacity:1" fill="#d1ecfe" d="M 324.5,205.5 C 303.367,230.335 276.367,241.335 243.5,238.5C 237.581,237.21 231.581,235.71 225.5,234C 233.406,235.277 241.406,236.11 249.5,236.5C 250.833,236.5 252.167,236.5 253.5,236.5C 281.675,235.994 305.175,225.327 324,204.5C 324.399,204.728 324.565,205.062 324.5,205.5 Z"/></g>
<g><path style="opacity:1" fill="#252525" d="M 315.5,231.5 C 318.91,231.384 320.244,233.05 319.5,236.5C 316.09,236.616 314.756,234.95 315.5,231.5 Z"/></g>
<g><path style="opacity:1" fill="#171819" d="M 253.5,234.5 C 253.5,235.167 253.5,235.833 253.5,236.5C 252.167,236.5 250.833,236.5 249.5,236.5C 249.5,235.833 249.5,235.167 249.5,234.5C 249.62,233.414 250.287,232.747 251.5,232.5C 252.713,232.747 253.38,233.414 253.5,234.5 Z"/></g>
<g><path style="opacity:1" fill="#222222" d="M 186.5,234.5 C 187.5,234.5 188.5,234.5 189.5,234.5C 190.244,237.95 188.91,239.616 185.5,239.5C 185.366,237.708 185.699,236.042 186.5,234.5 Z"/></g>
<g><path style="opacity:1" fill="#131313" d="M 313.5,239.5 C 315.912,239.694 316.912,241.027 316.5,243.5C 315.167,243.5 313.833,243.5 312.5,243.5C 312.433,242.041 312.766,240.708 313.5,239.5 Z"/></g>
<g><path style="opacity:1" fill="#f1d8f8" d="M 249.5,241.5 C 249.5,242.5 249.5,243.5 249.5,244.5C 244.12,244.324 238.787,244.658 233.5,245.5C 231.49,244.307 229.324,244.307 227,245.5C 226.5,245.333 226,245.167 225.5,245C 233.296,242.577 241.296,241.41 249.5,241.5 Z"/></g>
<g><path style="opacity:1" fill="#191819" d="M 253.5,241.5 C 253.5,242.5 253.5,243.5 253.5,244.5C 252.167,244.5 250.833,244.5 249.5,244.5C 249.5,243.5 249.5,242.5 249.5,241.5C 250.833,240.167 252.167,240.167 253.5,241.5 Z"/></g>
<g><path style="opacity:1" fill="#edd0f5" d="M 253.5,241.5 C 256.385,241.194 259.052,241.527 261.5,242.5C 264.092,243.445 267.426,244.278 271.5,245C 265.527,244.837 259.527,244.67 253.5,244.5C 253.5,243.5 253.5,242.5 253.5,241.5 Z"/></g>
<g><path style="opacity:1" fill="#191919" d="M 188.5,242.5 C 190.59,242.45 191.923,243.45 192.5,245.5C 191.167,246.833 189.833,246.833 188.5,245.5C 187.209,244.473 187.209,243.473 188.5,242.5 Z"/></g>
<g><path style="opacity:1" fill="#ce77e6" d="M 261.5,242.5 C 273.409,243.478 284.743,246.645 295.5,252C 333.304,275.107 350.304,308.94 346.5,353.5C 345.677,350.023 345.177,346.356 345,342.5C 344.79,347.339 343.956,351.339 342.5,354.5C 342.5,353.833 342.5,353.167 342.5,352.5C 344.193,338.694 343.526,325.028 340.5,311.5C 339.679,307.873 338.346,304.54 336.5,301.5C 335.105,297.71 333.438,294.043 331.5,290.5C 326.676,283.052 321.01,276.219 314.5,270C 313.563,269.308 312.897,269.475 312.5,270.5C 310.809,269.136 309.142,267.803 307.5,266.5C 309.104,265.713 309.771,264.38 309.5,262.5C 307.517,262.157 306.183,262.824 305.5,264.5C 269.138,240.189 233.138,240.522 197.5,265.5C 196.167,265.5 195.5,266.167 195.5,267.5C 190.226,271.105 185.559,275.438 181.5,280.5C 180.833,280.5 180.5,280.167 180.5,279.5C 184.14,275.139 188.14,270.972 192.5,267C 191.833,266.333 191.167,266.333 190.5,267C 188.559,269.454 186.225,271.287 183.5,272.5C 186.527,268.806 189.86,265.473 193.5,262.5C 195.632,262.446 196.965,261.446 197.5,259.5C 208.585,252.63 220.585,247.963 233.5,245.5C 238.787,244.658 244.12,244.324 249.5,244.5C 250.833,244.5 252.167,244.5 253.5,244.5C 259.527,244.67 265.527,244.837 271.5,245C 267.426,244.278 264.092,243.445 261.5,242.5 Z"/></g>
<g><path style="opacity:1" fill="#fdfdfd" d="M 305.5,264.5 C 305.833,265.5 306.5,266.167 307.5,266.5C 309.142,267.803 310.809,269.136 312.5,270.5C 319.599,277.768 325.766,285.768 331,294.5C 330.669,292.981 330.836,291.648 331.5,290.5C 333.438,294.043 335.105,297.71 336.5,301.5C 335.03,300.775 333.864,299.109 333,296.5C 334.76,302.785 336.76,309.118 339,315.5C 339.21,313.942 339.71,312.609 340.5,311.5C 343.526,325.028 344.193,338.694 342.5,352.5C 341.732,351.737 341.232,350.737 341,349.5C 340.088,354.727 338.921,359.893 337.5,365C 337.735,365.873 338.069,366.707 338.5,367.5C 338.154,368.696 337.654,368.696 337,367.5C 334.821,372.521 332.654,377.521 330.5,382.5C 327.779,385.894 325.446,389.561 323.5,393.5C 305.49,415.507 282.157,427.507 253.5,429.5C 252.761,429.631 252.094,429.464 251.5,429C 252.9,427.562 254.567,426.729 256.5,426.5C 256.725,424.284 255.892,422.617 254,421.5C 252.727,423.572 250.893,424.905 248.5,425.5C 247.614,426.325 247.281,427.325 247.5,428.5C 230.34,427.835 214.673,422.669 200.5,413C 195.294,408.289 189.961,403.789 184.5,399.5C 178.415,391.667 173.082,383.334 168.5,374.5C 164.276,362.881 161.776,350.881 161,338.5C 160.809,340.708 160.309,342.708 159.5,344.5C 159.5,339.167 159.5,333.833 159.5,328.5C 160.451,327.081 160.784,325.415 160.5,323.5C 161.497,323.53 162.164,323.03 162.5,322C 163.096,319.775 163.763,317.608 164.5,315.5C 167.355,303.429 173.021,291.763 181.5,280.5C 185.559,275.438 190.226,271.105 195.5,267.5C 196.183,269.176 197.517,269.843 199.5,269.5C 199.771,267.62 199.104,266.287 197.5,265.5C 233.138,240.522 269.138,240.189 305.5,264.5 Z"/></g>
<g><path style="opacity:1" fill="#151515" d="M 310.5,247.5 C 311.833,247.5 313.167,247.5 314.5,247.5C 314.778,249.346 314.111,250.68 312.5,251.5C 310.889,250.68 310.222,249.346 310.5,247.5 Z"/></g>
<g><path style="opacity:1" fill="#191919" d="M 249.5,248.5 C 250.833,248.5 252.167,248.5 253.5,248.5C 253.5,249.833 253.5,251.167 253.5,252.5C 252.167,252.5 250.833,252.5 249.5,252.5C 249.5,251.167 249.5,249.833 249.5,248.5 Z"/></g>
<g><path style="opacity:1" fill="#121212" d="M 190.5,250.5 C 195.116,251.041 195.449,252.374 191.5,254.5C 190.571,253.311 190.238,251.978 190.5,250.5 Z"/></g>
<g><path style="opacity:1" fill="#1b1b1b" d="M 308.5,254.5 C 311.131,255.425 311.798,257.091 310.5,259.5C 307.651,258.585 306.985,256.918 308.5,254.5 Z"/></g>
<g><path style="opacity:1" fill="#191919" d="M 249.5,256.5 C 250.833,256.5 252.167,256.5 253.5,256.5C 253.5,257.833 253.5,259.167 253.5,260.5C 252.167,260.5 250.833,260.5 249.5,260.5C 249.5,259.167 249.5,257.833 249.5,256.5 Z"/></g>
<g><path style="opacity:1" fill="#201d21" d="M 197.5,259.5 C 196.965,261.446 195.632,262.446 193.5,262.5C 193.737,261.209 193.404,260.209 192.5,259.5C 194.134,256.849 195.801,256.849 197.5,259.5 Z"/></g>
<g><path style="opacity:1" fill="#9ab6de" d="M 444.5,263.5 C 444.672,262.508 444.338,261.842 443.5,261.5C 443.999,257.51 444.499,253.51 445,249.5C 445.815,254.352 445.648,259.019 444.5,263.5 Z"/></g>
<g><path style="opacity:1" fill="#100911" d="M 307.5,266.5 C 306.5,266.167 305.833,265.5 305.5,264.5C 306.183,262.824 307.517,262.157 309.5,262.5C 309.771,264.38 309.104,265.713 307.5,266.5 Z"/></g>
<g><path style="opacity:1" fill="#151415" d="M 197.5,265.5 C 199.104,266.287 199.771,267.62 199.5,269.5C 197.517,269.843 196.183,269.176 195.5,267.5C 195.5,266.167 196.167,265.5 197.5,265.5 Z"/></g>
<g><path style="opacity:1" fill="#191919" d="M 249.5,264.5 C 250.833,264.5 252.167,264.5 253.5,264.5C 253.5,265.833 253.5,267.167 253.5,268.5C 252.167,268.5 250.833,268.5 249.5,268.5C 249.5,267.167 249.5,265.833 249.5,264.5 Z"/></g>
<g><path style="opacity:1" fill="#efd9f6" d="M 192.5,259.5 C 193.404,260.209 193.737,261.209 193.5,262.5C 189.86,265.473 186.527,268.806 183.5,272.5C 182.5,272.5 181.5,272.5 180.5,272.5C 184.623,268.145 188.623,263.811 192.5,259.5 Z"/></g>
<g><path style="opacity:1" fill="#242424" d="M 303.5,269.5 C 308.009,270.231 308.509,271.898 305,274.5C 302.389,273.5 301.889,271.833 303.5,269.5 Z"/></g>
<g><path style="opacity:1" fill="#282828" d="M 199.5,272.5 C 201.121,272.787 202.121,273.787 202.5,275.5C 200.412,278.253 198.745,277.92 197.5,274.5C 198.243,273.818 198.909,273.151 199.5,272.5 Z"/></g>
<g><path style="opacity:1" fill="#191919" d="M 249.5,272.5 C 250.833,272.5 252.167,272.5 253.5,272.5C 253.5,273.833 253.5,275.167 253.5,276.5C 252.167,276.5 250.833,276.5 249.5,276.5C 249.5,275.167 249.5,273.833 249.5,272.5 Z"/></g>
<g><path style="opacity:1" fill="#dfa3ef" d="M 331.5,290.5 C 330.836,291.648 330.669,292.981 331,294.5C 325.766,285.768 319.599,277.768 312.5,270.5C 312.897,269.475 313.563,269.308 314.5,270C 321.01,276.219 326.676,283.052 331.5,290.5 Z"/></g>
<g><path style="opacity:1" fill="#e5b5f2" d="M 180.5,279.5 C 177.964,282.41 175.131,285.743 172,289.5C 171.667,287.953 172.167,286.62 173.5,285.5C 173.137,284.817 172.804,284.15 172.5,283.5C 174.435,279.293 177.102,275.627 180.5,272.5C 181.5,272.5 182.5,272.5 183.5,272.5C 186.225,271.287 188.559,269.454 190.5,267C 191.167,266.333 191.833,266.333 192.5,267C 188.14,270.972 184.14,275.139 180.5,279.5 Z"/></g>
<g><path style="opacity:1" fill="#1a1a1a" d="M 300.5,277.5 C 301.833,277.5 303.167,277.5 304.5,277.5C 304.833,280.5 303.5,281.833 300.5,281.5C 300.5,280.167 300.5,278.833 300.5,277.5 Z"/></g>
<g><path style="opacity:1" fill="#181818" d="M 200.5,280.5 C 203.5,280.167 204.833,281.5 204.5,284.5C 203.167,284.5 201.833,284.5 200.5,284.5C 200.5,283.167 200.5,281.833 200.5,280.5 Z"/></g>
<g><path style="opacity:1" fill="#84a3d6" d="M 433.5,286.5 C 433.167,286.5 432.833,286.5 432.5,286.5C 435.388,274.345 437.222,262.011 438,249.5C 438.498,262.193 436.998,274.527 433.5,286.5 Z"/></g>
<g><path style="opacity:1" fill="#191919" d="M 249.5,280.5 C 250.833,280.5 252.167,280.5 253.5,280.5C 253.5,281.833 253.5,283.167 253.5,284.5C 252.167,284.5 250.833,284.5 249.5,284.5C 249.5,283.167 249.5,281.833 249.5,280.5 Z"/></g>
<g><path style="opacity:1" fill="#1a1a1a" d="M 297.5,285.5 C 298.833,285.5 300.167,285.5 301.5,285.5C 301.5,286.833 301.5,288.167 301.5,289.5C 298.5,289.833 297.167,288.5 297.5,285.5 Z"/></g>
<g><path style="opacity:1" fill="#131313" d="M 202.5,288.5 C 204.716,288.275 206.383,289.108 207.5,291C 204.499,293.195 202.833,292.362 202.5,288.5 Z"/></g>
<g><path style="opacity:1" fill="#191919" d="M 249.5,288.5 C 250.833,288.5 252.167,288.5 253.5,288.5C 253.5,289.833 253.5,291.167 253.5,292.5C 252.167,292.5 250.833,292.5 249.5,292.5C 249.5,291.167 249.5,289.833 249.5,288.5 Z"/></g>
<g><path style="opacity:1" fill="#131313" d="M 295.5,292.5 C 297.346,292.222 298.68,292.889 299.5,294.5C 298.68,296.111 297.346,296.778 295.5,296.5C 295.5,295.167 295.5,293.833 295.5,292.5 Z"/></g>
<g><path style="opacity:1" fill="#1f1f1f" d="M 206.5,295.5 C 209.389,295.999 210.056,297.499 208.5,300C 207.552,300.483 206.552,300.649 205.5,300.5C 205.366,298.708 205.699,297.042 206.5,295.5 Z"/></g>
<g><path style="opacity:1" fill="#191919" d="M 249.5,296.5 C 250.833,296.5 252.167,296.5 253.5,296.5C 253.5,297.833 253.5,299.167 253.5,300.5C 252.167,300.5 250.833,300.5 249.5,300.5C 249.5,299.167 249.5,297.833 249.5,296.5 Z"/></g>
<g><path style="opacity:1" fill="#212121" d="M 292.5,300.5 C 297.551,300.087 298.384,301.421 295,304.5C 292.98,303.968 292.147,302.635 292.5,300.5 Z"/></g>
<g><path style="opacity:1" fill="#efd2f7" d="M 336.5,301.5 C 338.346,304.54 339.679,307.873 340.5,311.5C 339.71,312.609 339.21,313.942 339,315.5C 336.76,309.118 334.76,302.785 333,296.5C 333.864,299.109 335.03,300.775 336.5,301.5 Z"/></g>
<g><path style="opacity:1" fill="#131313" d="M 208.5,303.5 C 209.5,303.5 210.5,303.5 211.5,303.5C 211.5,304.833 211.5,306.167 211.5,307.5C 208.046,307.733 207.046,306.4 208.5,303.5 Z"/></g>
<g><path style="opacity:1" fill="#191919" d="M 249.5,304.5 C 250.833,304.5 252.167,304.5 253.5,304.5C 253.5,305.833 253.5,307.167 253.5,308.5C 252.167,308.5 250.833,308.5 249.5,308.5C 249.5,307.167 249.5,305.833 249.5,304.5 Z"/></g>
<g><path style="opacity:1" fill="#d78eeb" d="M 180.5,279.5 C 180.5,280.167 180.833,280.5 181.5,280.5C 173.021,291.763 167.355,303.429 164.5,315.5C 163.778,315.082 163.278,314.416 163,313.5C 161.974,316.802 161.14,320.135 160.5,323.5C 160.784,325.415 160.451,327.081 159.5,328.5C 158.543,330.05 158.043,333.05 158,337.5C 157.186,332.98 157.353,328.646 158.5,324.5C 160.108,320.387 160.941,316.054 161,311.5C 160.302,314.004 159.469,316.337 158.5,318.5C 158.5,317.833 158.167,317.5 157.5,317.5C 159.814,304.882 164.814,293.549 172.5,283.5C 172.804,284.15 173.137,284.817 173.5,285.5C 172.167,286.62 171.667,287.953 172,289.5C 175.131,285.743 177.964,282.41 180.5,279.5 Z"/></g>
<g><path style="opacity:1" fill="#f0d4f7" d="M 169.5,291.5 C 170.043,291.56 170.376,291.893 170.5,292.5C 168.667,296.167 166.833,299.833 165,303.5C 165.612,299.256 167.112,295.256 169.5,291.5 Z"/></g>
<g><path style="opacity:1" fill="#1f1f1f" d="M 290.5,307.5 C 294.673,307.971 295.34,309.638 292.5,312.5C 289.376,311.731 288.709,310.064 290.5,307.5 Z"/></g>
<g><path style="opacity:1" fill="#1e1e1e" d="M 211.5,310.5 C 214.389,310.999 215.056,312.499 213.5,315C 212.552,315.483 211.552,315.649 210.5,315.5C 210.366,313.708 210.699,312.042 211.5,310.5 Z"/></g>
<g><path style="opacity:1" fill="#191919" d="M 249.5,312.5 C 250.833,312.5 252.167,312.5 253.5,312.5C 253.5,313.833 253.5,315.167 253.5,316.5C 252.167,316.5 250.833,316.5 249.5,316.5C 249.5,315.167 249.5,313.833 249.5,312.5 Z"/></g>
<g><path style="opacity:1" fill="#edccf6" d="M 158.5,324.5 C 158.5,322.5 158.5,320.5 158.5,318.5C 159.469,316.337 160.302,314.004 161,311.5C 160.941,316.054 160.108,320.387 158.5,324.5 Z"/></g>
<g><path style="opacity:1" fill="#181818" d="M 287.5,315.5 C 290.5,315.167 291.833,316.5 291.5,319.5C 290.167,319.5 288.833,319.5 287.5,319.5C 287.5,318.167 287.5,316.833 287.5,315.5 Z"/></g>
<g><path style="opacity:1" fill="#efd2f7" d="M 164.5,315.5 C 163.763,317.608 163.096,319.775 162.5,322C 162.164,323.03 161.497,323.53 160.5,323.5C 161.14,320.135 161.974,316.802 163,313.5C 163.278,314.416 163.778,315.082 164.5,315.5 Z"/></g>
<g><path style="opacity:1" fill="#3e6bbc" d="M 65.5,281.5 C 68.9255,299.111 74.9255,315.778 83.5,331.5C 82.8333,331.5 82.5,331.833 82.5,332.5C 72.9769,316.598 67.3102,299.598 65.5,281.5 Z"/></g>
<g><path style="opacity:1" fill="#101010" d="M 214.5,318.5 C 216.176,319.183 216.843,320.517 216.5,322.5C 212.437,322.384 211.77,321.051 214.5,318.5 Z"/></g>
<g><path style="opacity:1" fill="#111111" d="M 249.5,320.5 C 250.833,320.5 252.167,320.5 253.5,320.5C 253.5,321.833 253.5,323.167 253.5,324.5C 252.167,324.5 250.833,324.5 249.5,324.5C 249.5,323.167 249.5,321.833 249.5,320.5 Z"/></g>
<g><path style="opacity:1" fill="#436bbc" d="M 432.5,286.5 C 432.833,286.5 433.167,286.5 433.5,286.5C 430.541,301.081 425.875,315.081 419.5,328.5C 417.922,330.375 418.255,331.708 420.5,332.5C 419.737,334.368 418.737,336.035 417.5,337.5C 416.504,337.414 415.671,337.748 415,338.5C 413.333,341.167 411.667,343.833 410,346.5C 409.383,345.551 409.549,344.718 410.5,344C 409.906,343.536 409.239,343.369 408.5,343.5C 419.502,325.822 427.502,306.822 432.5,286.5 Z"/></g>
<g><path style="opacity:1" fill="#1d1d1d" d="M 285.5,323.5 C 286.833,323.5 288.167,323.5 289.5,323.5C 289.352,327.491 287.686,328.324 284.5,326C 285.252,325.329 285.586,324.496 285.5,323.5 Z"/></g>
<g><path style="opacity:1" fill="#141414" d="M 215.5,326.5 C 217.346,326.222 218.68,326.889 219.5,328.5C 218.68,330.111 217.346,330.778 215.5,330.5C 215.5,329.167 215.5,327.833 215.5,326.5 Z"/></g>
<g><path style="opacity:1" fill="#111111" d="M 249.5,328.5 C 250.833,328.5 252.167,328.5 253.5,328.5C 253.5,329.833 253.5,331.167 253.5,332.5C 252.167,332.5 250.833,332.5 249.5,332.5C 249.5,331.167 249.5,329.833 249.5,328.5 Z"/></g>
<g><path style="opacity:1" fill="#0e0e0e" d="M 283.5,330.5 C 285.532,331.048 286.532,332.381 286.5,334.5C 285.167,334.5 283.833,334.5 282.5,334.5C 282.433,333.041 282.766,331.708 283.5,330.5 Z"/></g>
<g><path style="opacity:1" fill="#191919" d="M 218.5,333.5 C 219.5,333.5 220.5,333.5 221.5,333.5C 221.725,335.716 220.892,337.383 219,338.5C 217.481,336.861 217.314,335.194 218.5,333.5 Z"/></g>
<g><path style="opacity:1" fill="#111111" d="M 249.5,336.5 C 250.833,336.5 252.167,336.5 253.5,336.5C 253.5,337.833 253.5,339.167 253.5,340.5C 252.167,340.5 250.833,340.5 249.5,340.5C 249.5,339.167 249.5,337.833 249.5,336.5 Z"/></g>
<g><path style="opacity:1" fill="#101010" d="M 280.5,338.5 C 281.833,338.5 283.167,338.5 284.5,338.5C 284.778,340.346 284.111,341.68 282.5,342.5C 280.889,341.68 280.222,340.346 280.5,338.5 Z"/></g>
<g><path style="opacity:1" fill="#ce78e7" d="M 157.5,317.5 C 158.167,317.5 158.5,317.833 158.5,318.5C 158.5,320.5 158.5,322.5 158.5,324.5C 157.353,328.646 157.186,332.98 158,337.5C 158.043,333.05 158.543,330.05 159.5,328.5C 159.5,333.833 159.5,339.167 159.5,344.5C 159.84,352.713 161.34,360.713 164,368.5C 165.685,373.204 167.852,377.538 170.5,381.5C 173.742,388.973 178.242,395.639 184,401.5C 184.464,400.906 184.631,400.239 184.5,399.5C 189.961,403.789 195.294,408.289 200.5,413C 214.673,422.669 230.34,427.835 247.5,428.5C 248.398,429.158 249.398,429.824 250.5,430.5C 250.376,431.107 250.043,431.44 249.5,431.5C 242.07,431.248 234.736,430.248 227.5,428.5C 226.833,428.667 226.167,428.833 225.5,429C 229.333,430.034 232.999,431.2 236.5,432.5C 233.391,432.736 230.391,432.403 227.5,431.5C 215.987,428.245 205.32,423.078 195.5,416C 164.231,390.362 151.564,357.529 157.5,317.5 Z"/></g>
<g><path style="opacity:1" fill="#151515" d="M 220.5,341.5 C 223.5,341.167 224.833,342.5 224.5,345.5C 223.167,345.5 221.833,345.5 220.5,345.5C 220.5,344.167 220.5,342.833 220.5,341.5 Z"/></g>
<g><path style="opacity:1" fill="#111111" d="M 249.5,344.5 C 250.833,344.5 252.167,344.5 253.5,344.5C 253.5,345.833 253.5,347.167 253.5,348.5C 252.167,348.5 250.833,348.5 249.5,348.5C 249.5,347.167 249.5,345.833 249.5,344.5 Z"/></g>
<g><path style="opacity:1" fill="#1a1a1a" d="M 278.5,345.5 C 280.759,346.344 281.759,348.011 281.5,350.5C 277.716,350.475 276.716,348.808 278.5,345.5 Z"/></g>
<g><path style="opacity:1" fill="#141414" d="M 222.5,349.5 C 223.833,349.5 225.167,349.5 226.5,349.5C 226.778,351.346 226.111,352.68 224.5,353.5C 222.889,352.68 222.222,351.346 222.5,349.5 Z"/></g>
<g><path style="opacity:1" fill="#111111" d="M 249.5,352.5 C 250.833,352.5 252.167,352.5 253.5,352.5C 253.5,353.833 253.5,355.167 253.5,356.5C 252.167,356.5 250.833,356.5 249.5,356.5C 249.5,355.167 249.5,353.833 249.5,352.5 Z"/></g>
<g><path style="opacity:1" fill="#0c0c0c" d="M 275.5,353.5 C 280.536,354.505 280.536,355.838 275.5,357.5C 275.5,356.167 275.5,354.833 275.5,353.5 Z"/></g>
<g><path style="opacity:1" fill="#252525" d="M 225.5,356.5 C 230.218,357.319 230.552,358.986 226.5,361.5C 225.027,359.831 224.694,358.164 225.5,356.5 Z"/></g>
<g><path style="opacity:1" fill="#416abc" d="M 427.5,334.5 C 416.011,358.663 399.678,378.996 378.5,395.5C 385.131,388.368 391.964,381.368 399,374.5C 400.75,372.266 402.25,369.932 403.5,367.5C 406.471,365.557 408.471,362.891 409.5,359.5C 414.896,351.054 420.062,342.387 425,333.5C 425.671,334.252 426.504,334.586 427.5,334.5 Z"/></g>
<g><path style="opacity:1" fill="#111111" d="M 249.5,360.5 C 250.833,360.5 252.167,360.5 253.5,360.5C 253.5,361.833 253.5,363.167 253.5,364.5C 252.167,364.5 250.833,364.5 249.5,364.5C 249.5,363.167 249.5,361.833 249.5,360.5 Z"/></g>
<g><path style="opacity:1" fill="#171717" d="M 272.5,361.5 C 273.833,361.5 275.167,361.5 276.5,361.5C 276.5,362.833 276.5,364.167 276.5,365.5C 273.5,365.833 272.167,364.5 272.5,361.5 Z"/></g>
<g><path style="opacity:1" fill="#131313" d="M 227.5,364.5 C 228.833,364.5 230.167,364.5 231.5,364.5C 231.778,366.346 231.111,367.68 229.5,368.5C 227.889,367.68 227.222,366.346 227.5,364.5 Z"/></g>
<g><path style="opacity:1" fill="#c1d2eb" d="M 409.5,359.5 C 408.471,362.891 406.471,365.557 403.5,367.5C 405.016,364.467 407.016,361.8 409.5,359.5 Z"/></g>
<g><path style="opacity:1" fill="#f2dbf9" d="M 168.5,374.5 C 168.878,376.921 169.545,379.254 170.5,381.5C 167.852,377.538 165.685,373.204 164,368.5C 161.34,360.713 159.84,352.713 159.5,344.5C 160.309,342.708 160.809,340.708 161,338.5C 161.776,350.881 164.276,362.881 168.5,374.5 Z"/></g>
<g><path style="opacity:1" fill="#111111" d="M 249.5,368.5 C 250.833,368.5 252.167,368.5 253.5,368.5C 253.5,369.833 253.5,371.167 253.5,372.5C 252.167,372.5 250.833,372.5 249.5,372.5C 249.5,371.167 249.5,369.833 249.5,368.5 Z"/></g>
<g><path style="opacity:1" fill="#272727" d="M 270.5,368.5 C 274.491,368.648 275.324,370.314 273,373.5C 271.795,372.929 270.628,372.262 269.5,371.5C 270.127,370.583 270.461,369.583 270.5,368.5 Z"/></g>
<g><path style="opacity:1" fill="#e8bcf3" d="M 342.5,352.5 C 342.5,353.167 342.5,353.833 342.5,354.5C 341.18,357.28 340.68,360.28 341,363.5C 341.667,361.5 342.333,359.5 343,357.5C 341.251,368.341 337.251,378.341 331,387.5C 331.526,385.773 331.359,384.106 330.5,382.5C 332.654,377.521 334.821,372.521 337,367.5C 337.654,368.696 338.154,368.696 338.5,367.5C 338.069,366.707 337.735,365.873 337.5,365C 338.921,359.893 340.088,354.727 341,349.5C 341.232,350.737 341.732,351.737 342.5,352.5 Z"/></g>
<g><path style="opacity:1" fill="#1c1c1c" d="M 231.5,371.5 C 235.498,373.516 235.332,375.183 231,376.5C 228.919,374.443 229.086,372.777 231.5,371.5 Z"/></g>
<g><path style="opacity:1" fill="#e2eaf5" d="M 443.5,261.5 C 444.338,261.842 444.672,262.508 444.5,263.5C 438.953,312.096 417.953,352.596 381.5,385C 372.491,392.855 362.824,399.689 352.5,405.5C 360.612,399.595 368.612,393.429 376.5,387C 393.166,372.743 406.832,356.243 417.5,337.5C 418.737,336.035 419.737,334.368 420.5,332.5C 432.756,310.397 440.423,286.73 443.5,261.5 Z"/></g>
<g><path style="opacity:1" fill="#161616" d="M 267.5,376.5 C 268.833,376.5 270.167,376.5 271.5,376.5C 271.5,377.833 271.5,379.167 271.5,380.5C 268.5,380.833 267.167,379.5 267.5,376.5 Z"/></g>
<g><path style="opacity:1" fill="#111111" d="M 249.5,376.5 C 250.833,376.5 252.167,376.5 253.5,376.5C 253.5,377.833 253.5,379.167 253.5,380.5C 252.167,380.5 250.833,380.5 249.5,380.5C 249.5,379.167 249.5,377.833 249.5,376.5 Z"/></g>
<g><path style="opacity:1" fill="#1a1a1a" d="M 232.5,379.5 C 233.833,379.5 235.167,379.5 236.5,379.5C 236.5,380.833 236.5,382.167 236.5,383.5C 235.167,383.5 233.833,383.5 232.5,383.5C 232.5,382.167 232.5,380.833 232.5,379.5 Z"/></g>
<g><path style="opacity:1" fill="#161616" d="M 265.5,383.5 C 266.766,384.09 268.099,384.59 269.5,385C 268.708,388.909 267.041,389.409 264.5,386.5C 265.127,385.583 265.461,384.583 265.5,383.5 Z"/></g>
<g><path style="opacity:1" fill="#111111" d="M 249.5,384.5 C 250.833,384.5 252.167,384.5 253.5,384.5C 253.5,385.833 253.5,387.167 253.5,388.5C 252.167,388.5 250.833,388.5 249.5,388.5C 249.5,387.167 249.5,385.833 249.5,384.5 Z"/></g>
<g><path style="opacity:1" fill="#1f1f1f" d="M 236.5,386.5 C 240.202,388.221 240.202,389.888 236.5,391.5C 234.016,389.631 234.016,387.964 236.5,386.5 Z"/></g>
<g><path style="opacity:1" fill="#e2acf1" d="M 168.5,374.5 C 173.082,383.334 178.415,391.667 184.5,399.5C 184.631,400.239 184.464,400.906 184,401.5C 178.242,395.639 173.742,388.973 170.5,381.5C 169.545,379.254 168.878,376.921 168.5,374.5 Z"/></g>
<g><path style="opacity:1" fill="#1b1b1b" d="M 262.5,391.5 C 263.833,391.5 265.167,391.5 266.5,391.5C 266.5,392.833 266.5,394.167 266.5,395.5C 265.167,395.5 263.833,395.5 262.5,395.5C 262.5,394.167 262.5,392.833 262.5,391.5 Z"/></g>
<g><path style="opacity:1" fill="#111111" d="M 249.5,392.5 C 250.833,392.5 252.167,392.5 253.5,392.5C 253.5,393.833 253.5,395.167 253.5,396.5C 252.167,396.5 250.833,396.5 249.5,396.5C 249.5,395.167 249.5,393.833 249.5,392.5 Z"/></g>
<g><path style="opacity:1" fill="#d485ea" d="M 346.5,353.5 C 343.726,370.846 336.726,386.179 325.5,399.5C 317.34,406.409 309.007,413.076 300.5,419.5C 286.094,426.967 270.761,430.967 254.5,431.5C 254.167,430.833 253.833,430.167 253.5,429.5C 282.157,427.507 305.49,415.507 323.5,393.5C 325.446,389.561 327.779,385.894 330.5,382.5C 331.359,384.106 331.526,385.773 331,387.5C 337.251,378.341 341.251,368.341 343,357.5C 342.333,359.5 341.667,361.5 341,363.5C 340.68,360.28 341.18,357.28 342.5,354.5C 343.956,351.339 344.79,347.339 345,342.5C 345.177,346.356 345.677,350.023 346.5,353.5 Z"/></g>
<g><path style="opacity:1" fill="#141414" d="M 238.5,394.5 C 239.5,394.5 240.5,394.5 241.5,394.5C 241.5,395.833 241.5,397.167 241.5,398.5C 238.046,398.733 237.046,397.4 238.5,394.5 Z"/></g>
<g><path style="opacity:1" fill="#e3eaf5" d="M 403.5,367.5 C 402.25,369.932 400.75,372.266 399,374.5C 391.964,381.368 385.131,388.368 378.5,395.5C 361.913,410.637 342.913,421.97 321.5,429.5C 316.216,430.595 311.216,432.261 306.5,434.5C 295.409,436.698 284.409,438.698 273.5,440.5C 244.453,442.844 216.12,439.344 188.5,430C 198.427,431.978 208.427,433.978 218.5,436C 292.262,444.812 353.929,421.979 403.5,367.5 Z"/></g>
<g><path style="opacity:1" fill="#1f1f1f" d="M 260.5,399.5 C 265.207,399.417 265.707,400.75 262,403.5C 259.5,402.842 259,401.509 260.5,399.5 Z"/></g>
<g><path style="opacity:1" fill="#eecef6" d="M 323.5,393.5 C 325.371,393.141 326.871,392.141 328,390.5C 324.454,397.079 319.62,402.912 313.5,408C 312.833,408.667 312.167,408.667 311.5,408C 315.333,404.167 319.167,400.333 323,396.5C 323.483,395.552 323.649,394.552 323.5,393.5 Z"/></g>
<g><path style="opacity:1" fill="#111111" d="M 249.5,400.5 C 250.833,400.5 252.167,400.5 253.5,400.5C 253.5,401.833 253.5,403.167 253.5,404.5C 252.167,404.5 250.833,404.5 249.5,404.5C 249.5,403.167 249.5,401.833 249.5,400.5 Z"/></g>
<g><path style="opacity:1" fill="#232323" d="M 239.5,402.5 C 242.95,401.756 244.616,403.09 244.5,406.5C 241.454,406.817 239.787,405.484 239.5,402.5 Z"/></g>
<g><path style="opacity:1" fill="#0e0e0e" d="M 258.5,406.5 C 260.532,407.048 261.532,408.381 261.5,410.5C 260.167,410.5 258.833,410.5 257.5,410.5C 257.433,409.041 257.766,407.708 258.5,406.5 Z"/></g>
<g><path style="opacity:1" fill="#91afdb" d="M 352.5,405.5 C 351.998,407.085 350.998,407.585 349.5,407C 350.244,405.961 351.244,405.461 352.5,405.5 Z"/></g>
<g><path style="opacity:1" fill="#111111" d="M 249.5,408.5 C 250.833,408.5 252.167,408.5 253.5,408.5C 253.5,409.833 253.5,411.167 253.5,412.5C 252.167,412.5 250.833,412.5 249.5,412.5C 249.5,411.167 249.5,409.833 249.5,408.5 Z"/></g>
<g><path style="opacity:1" fill="#202020" d="M 243.5,409.5 C 244.5,409.5 245.5,409.5 246.5,409.5C 246.773,411.958 245.773,413.625 243.5,414.5C 242.334,412.833 242.334,411.166 243.5,409.5 Z"/></g>
<g><path style="opacity:1" fill="#181818" d="M 255.5,414.5 C 260.207,414.417 260.707,415.75 257,418.5C 254.5,417.842 254,416.509 255.5,414.5 Z"/></g>
<g><path style="opacity:1" fill="#f3dcf9" d="M 325.5,399.5 C 318.92,407.581 311.254,414.414 302.5,420C 301.563,420.692 300.897,420.525 300.5,419.5C 309.007,413.076 317.34,406.409 325.5,399.5 Z"/></g>
<g><path style="opacity:1" fill="#111111" d="M 249.5,416.5 C 250.833,416.5 252.167,416.5 253.5,416.5C 253.5,417.833 253.5,419.167 253.5,420.5C 252.167,420.5 250.833,420.5 249.5,420.5C 249.5,419.167 249.5,417.833 249.5,416.5 Z"/></g>
<g><path style="opacity:1" fill="#0d0d0d" d="M 245.5,417.5 C 246.5,417.5 247.5,417.5 248.5,417.5C 248.5,418.833 248.5,420.167 248.5,421.5C 245.45,421.354 244.45,420.02 245.5,417.5 Z"/></g>
<g><path style="opacity:1" fill="#161516" d="M 253.5,429.5 C 253.833,430.167 254.167,430.833 254.5,431.5C 253.024,433.432 251.357,433.765 249.5,432.5C 249.5,432.167 249.5,431.833 249.5,431.5C 250.043,431.44 250.376,431.107 250.5,430.5C 249.398,429.824 248.398,429.158 247.5,428.5C 247.281,427.325 247.614,426.325 248.5,425.5C 250.893,424.905 252.727,423.572 254,421.5C 255.892,422.617 256.725,424.284 256.5,426.5C 254.567,426.729 252.9,427.562 251.5,429C 252.094,429.464 252.761,429.631 253.5,429.5 Z"/></g>
<g><path style="opacity:1" fill="#efd1f7" d="M 249.5,431.5 C 249.5,431.833 249.5,432.167 249.5,432.5C 245.167,432.5 240.833,432.5 236.5,432.5C 232.999,431.2 229.333,430.034 225.5,429C 226.167,428.833 226.833,428.667 227.5,428.5C 234.736,430.248 242.07,431.248 249.5,431.5 Z"/></g>
<g><path style="opacity:1" fill="#96b2dc" d="M 321.5,429.5 C 316.915,432.14 311.915,433.806 306.5,434.5C 311.216,432.261 316.216,430.595 321.5,429.5 Z"/></g>
<g><path style="opacity:1" fill="#4471bf" d="M 306.5,434.5 C 296.842,437.835 286.842,440.168 276.5,441.5C 275.791,440.596 274.791,440.263 273.5,440.5C 284.409,438.698 295.409,436.698 306.5,434.5 Z"/></g>
</svg>
